<svg id="レイヤー_1" data-name="レイヤー 1" xmlns="http://www.w3.org/2000/svg" viewBox="0 0 24 24">
  <defs>
    <style>
      .cls-1 {
        fill: #fff;
        opacity: 0;
      }
    </style>
  </defs>
  <g>
    <rect class="cls-1" x="-0.12952" y="0.03171" width="24" height="24" transform="translate(23.74095 24.06342) rotate(180)"/>
    <path d="M7.99547,17.2238l3.88-3.88,3.88,3.88a.997.997,0,0,0,1.41-1.41l-4.59-4.59a.99587.99587,0,0,0-1.41,0l-4.59,4.59a.99587.99587,0,0,0,0,1.41A1.01726,1.01726,0,0,0,7.99547,17.2238Z" fill="#fff"/>
    <path d="M7.99547,11.26412l3.88-3.88,3.88,3.88a.997.997,0,0,0,1.41-1.41l-4.59-4.59a.99587.99587,0,0,0-1.41,0l-4.59,4.59a.99587.99587,0,0,0,0,1.41A1.01726,1.01726,0,0,0,7.99547,11.26412Z" fill="#fff"/>
  </g>
</svg>
